<?xml version="1.0" encoding="UTF-8" standalone="no"?>
<!-- Generator: Adobe Illustrator 25.3.1, SVG Export Plug-In . SVG Version: 6.00 Build 0)  -->

<svg
   version="1.1"
   id="Layer_1"
   x="0px"
   y="0px"
   viewBox="0 0 1905.2 398.8"
   style="enable-background:new 0 0 1905.2 398.8;"
   xml:space="preserve"
   sodipodi:docname="Logo-Text-SVG-Transparent-Objects.svg"
   inkscape:version="1.2.1 (9c6d41e410, 2022-07-14)"
   xmlns:inkscape="http://www.inkscape.org/namespaces/inkscape"
   xmlns:sodipodi="http://sodipodi.sourceforge.net/DTD/sodipodi-0.dtd"
   xmlns="http://www.w3.org/2000/svg"
   xmlns:svg="http://www.w3.org/2000/svg"><defs
   id="defs113" /><sodipodi:namedview
   id="namedview111"
   pagecolor="#ffffff"
   bordercolor="#000000"
   borderopacity="0.25"
   inkscape:showpageshadow="2"
   inkscape:pageopacity="0.0"
   inkscape:pagecheckerboard="0"
   inkscape:deskcolor="#d1d1d1"
   showgrid="false"
   inkscape:zoom="4.480471"
   inkscape:cx="302.42356"
   inkscape:cy="178.77585"
   inkscape:window-width="3840"
   inkscape:window-height="2126"
   inkscape:window-x="3829"
   inkscape:window-y="-11"
   inkscape:window-maximized="1"
   inkscape:current-layer="g108" />
<style
   type="text/css"
   id="style2">
	.st0{fill:#FEFEFE;}
	.st1{fill:#FDFDFD;}
	.st2{fill:#FBFBFB;}
</style>
<g
   id="g108">
	<path
   id="path4"
   d="M 208.57812 35.220703 C 208.42162 35.259961 208.26211 35.35 208.09961 35.5 C 206.49961 36.899985 209.20039 38.000811 209.90039 39.300781 C 210.00039 39.400781 209.80078 39.700391 209.80078 39.900391 C 207.20078 40.000391 205.40078 38.300766 203.30078 37.300781 C 201.90078 36.600796 200.10039 34.300811 198.90039 36.300781 C 197.70039 38.300751 200.50039 39.099234 201.90039 40.199219 L 202.19922 40.800781 C 200.49922 41.800766 198.20039 42.099249 197.90039 44.699219 C 200.70039 44.999204 203.20078 44.79997 205.30078 43 C 206.20078 42.300015 207.39961 42.300391 208.09961 42.900391 C 208.79961 43.600376 207.80078 44.299219 207.30078 44.699219 C 206.70078 45.199204 205.00078 45.000406 205.80078 46.400391 C 206.40078 47.600361 207.49961 47.099985 208.59961 46.5 C 210.89961 45.300015 213.10039 43.200015 216.40039 44.5 C 214.30039 45.499985 212.09961 46.399264 212.09961 49.699219 C 213.89961 48.799234 215.49922 48.299204 216.69922 47.199219 C 218.09922 45.899234 219.50039 45.199624 221.40039 46.099609 C 217.90039 48.599579 217.7 48.799264 218.5 51.699219 C 220.4 51.099219 221.70039 49.899189 222.90039 48.199219 C 223.90039 46.799234 225.6 45.599234 228 47.199219 C 226.4 48.599189 223.7 48.899654 224 51.599609 C 228 52.199609 229.4 48.000781 232.5 47.300781 C 233 48.000781 232.80039 48.500796 232.40039 48.800781 C 231.00039 49.800766 229.3 51.099639 230.5 52.599609 C 232.2 54.599579 232.70039 51.599204 233.90039 51.199219 C 236.00039 50.599219 237.4 47.199654 240.5 49.599609 C 239.7 50.799594 237.5 50.100015 237.5 51.5 C 237.5 52.699985 234.70078 52.399249 236.30078 54.199219 C 237.50078 55.599189 238.29922 54.200376 239.19922 53.900391 C 241.09922 53.300391 242.39961 51.299609 244.59961 51.099609 C 245.19961 51.099609 245.99922 50.799624 246.19922 51.599609 C 246.49922 52.499594 245.39922 52.399219 245.19922 52.699219 C 244.39922 53.899204 242.10078 54.700406 242.80078 55.900391 C 243.70078 57.400361 245.39922 55.9 246.69922 55.5 C 247.69922 55.1 248.80078 54.700781 249.80078 54.300781 C 250.20078 55.400766 249.79922 56.100796 249.19922 56.800781 C 248.59922 57.500781 247.50039 58.300015 248.40039 59.5 C 249.10039 60.499985 250.39961 60.300376 251.09961 59.900391 C 252.79961 58.900406 254.60078 59.500391 256.30078 59.400391 C 256.50078 60.700361 254.09922 61.500796 255.69922 62.300781 C 258.09922 63.500766 261.60078 62.699669 262.80078 66.099609 L 268.5 68.5 C 270 69.599985 269.10078 70.400015 268.30078 71.5 C 267.10078 73.09997 268.19922 76.4 270.19922 76.5 C 272.19922 76.6 274.1 77.200391 276 77.400391 C 277.8 77.600376 280.59961 76.500015 281.09961 78 C 281.59961 79.79997 278.59922 80.499234 277.19922 81.699219 C 274.39922 84.099174 273.99922 85.399264 276.19922 88.199219 C 276.89922 89.099204 277.69961 89.999624 278.59961 90.599609 C 281.89961 92.899579 284.59961 95.900841 288.09961 99.300781 C 286.69961 99.000796 286.29961 99.000781 286.09961 98.800781 C 277.79976 91.900886 268.89907 85.799925 259.19922 81 C 248.69937 75.800075 238.00024 71.000751 226.40039 68.300781 C 218.10054 66.400811 209.70063 64.499609 201.30078 64.099609 C 184.60108 63.199624 168.10009 64.399699 151.90039 69.599609 C 142.60054 72.599564 133.70063 76.299294 125.30078 81.199219 C 115.90093 86.599129 106.79907 92.500105 98.699219 100 C 92.499309 105.69985 86.999924 111.99922 81.5 118.19922 C 75.30009 125.99907 70.199144 134.50093 65.699219 143.30078 C 61.399279 151.70063 58.799189 160.89976 56.699219 170.09961 C 54.799249 178.39946 52.700781 186.70093 52.800781 195.30078 C 52.900781 201.40078 52.600391 207.60093 53.400391 213.80078 C 54.700361 223.80063 55.800841 233.80054 59.300781 243.40039 C 63.100721 253.60024 67.199294 263.69976 72.699219 273.09961 C 74.099189 275.49961 73.599955 276.39961 71 276.59961 C 70.400015 275.19961 71.899159 270.70078 67.699219 274.30078 C 66.999219 274.80078 66.5 273.59922 66 273.19922 C 65.400015 272.79922 64.999594 271.99922 64.099609 272.69922 C 63.299624 273.29922 62.999219 273.90039 63.699219 274.90039 C 63.899219 275.40039 65.099985 276.30039 64 276.90039 C 61.200045 278.40039 63.500796 279.59922 63.800781 281.19922 C 64.500781 284.89922 66.699264 285.29922 69.699219 285.19922 C 70.899204 285.09922 71.5 286.10039 72 286.90039 C 76.699925 293.80024 81.999309 300.20093 88.199219 305.80078 C 90.999174 308.40078 93.799249 310.90078 96.199219 314.30078 C 90.999294 313.60078 90.999174 313.59922 88.199219 316.69922 C 86.699234 318.39922 85.799204 317.99922 84.699219 316.19922 C 83.999219 314.89922 84.299219 313.79961 84.199219 312.59961 C 83.899219 307.89961 79.700721 302.70039 75.800781 302.40039 C 70.400871 302.00039 66.299985 302.69937 65 310.69922 C 64.300015 314.69907 67.500841 320.79922 71.300781 321.69922 C 73.300751 322.19922 75.499639 321.90078 77.599609 321.80078 C 80.299579 321.70078 81.099594 323.20078 80.099609 325.30078 C 78.799639 328.00078 79.300796 330.30078 80.300781 332.80078 C 81.100766 334.60078 81.5 336.69961 82 338.59961 C 77.60006 335.59961 73.600721 332.29922 69.800781 328.69922 C 63.400886 322.69922 57.699129 316.20024 52.199219 309.40039 C 50.399249 307.00039 45.899654 305.29946 48.099609 300.59961 C 48.799609 298.99961 47.099985 298.99961 46 299.59961 C 44.800015 300.19961 44.299624 300.19922 44.599609 298.69922 C 44.999609 296.89922 43.699985 296.10039 42.5 296.40039 C 41.200015 296.60039 41.199624 297.9 42.099609 299 C 42.299609 299.3 42.1 300.00078 42 300.80078 C 40.900015 299.00078 40.299189 297.1 38.199219 297 C 37.799219 297 37.1 297.69922 37 298.19922 C 36.5 300.29922 38.599234 300.8 39.699219 302 C 38.399234 302.1 37.399204 302.20078 36.199219 302.30078 C 36.799204 306.50078 39.999264 305.69922 43.699219 306.19922 C 42.199234 306.49922 41.700781 306.69961 41.300781 306.59961 C 39.800811 306.29961 39.900781 307.70039 39.300781 308.40039 C 38.800796 309.10039 39.400796 309.5 39.800781 310 C 40.800766 311.2 42.000796 309.99961 42.300781 309.59961 C 44.800751 306.89961 45.999234 309.40078 47.199219 310.80078 C 52.599129 317.40063 57.600871 324.20015 63.800781 330 C 68.500721 334.4 73.299294 338.59922 78.199219 342.69922 C 81.799159 345.69922 85.899264 348.19961 89.199219 351.59961 C 91.099189 353.59961 92.200436 355.8 95.400391 355.5 C 97.200361 355.3 97.900015 356.79922 98.5 358.19922 C 99.699985 361.29922 102.39961 362.20039 105.09961 361.40039 C 107.59961 360.70039 109.10078 361.69961 110.80078 363.09961 C 112.50078 364.59961 114.10078 366.4 116.80078 366 C 118.80078 365.7 120.09922 366.60078 121.69922 367.80078 C 123.39922 369.20078 124.8 371.49922 127.5 371.19922 C 128.1 371.19922 128.9 371.49961 129 370.59961 C 129 370.19961 128.50078 369.40039 128.30078 369.40039 C 124.90078 369.70039 123.70078 365.90078 120.80078 365.30078 C 118.60078 364.80078 116.79961 363.80078 115.09961 362.30078 C 112.09961 359.60078 108.40078 357.90078 104.30078 357.80078 C 102.10078 357.80078 101.1 356.89922 100.5 354.69922 C 99.900015 352.29922 98.400346 350.5 95.400391 351 C 93.700406 351.3 92.699609 350.60039 92.099609 348.90039 C 91.599624 347.40039 90.899609 345.99922 90.099609 344.69922 C 89.599624 343.89922 89.100015 343.4 90 342.5 C 90.999985 341.5 91.399234 342.40078 92.199219 342.80078 C 96.199159 344.70078 99.299265 348 103.19922 350 C 107.99907 352.5 112.4 355.60039 117 358.40039 C 124.49985 362.90039 132.20093 367.00039 140.30078 370.40039 C 145.90078 372.70039 151.60093 374.8 157.30078 377 C 160.00078 378 164.19922 376.60078 165.19922 374.30078 C 167.09922 369.90093 166.80078 368.89922 162.30078 366.69922 C 161.20078 366.09922 160.1 365.59961 159 365.09961 C 154.7 362.89961 150.4 360.69922 145.5 358.19922 C 151.79985 356.49922 157.50015 356.60078 163 356.30078 C 170.29985 355.80078 174.50078 352.50024 174.80078 345.40039 C 174.90078 342.90039 173.7 343.3 172 343.5 C 166.00015 344.4 160.19985 346.70039 154 344.90039 C 153.3 344.70039 152.4 344.99922 151.5 345.19922 C 148 346.09922 143.80039 346.70078 140.90039 345.30078 C 135.80054 342.70078 130.20078 340.79961 125.80078 337.09961 C 128.10078 335.09961 129.79922 334.59922 132.69922 337.19922 C 135.39922 339.59922 139.50078 340.5 142.80078 342.5 C 143.60078 342.9 144.00039 342.5 144.40039 342 C 145.30039 340.9 143.99922 341.39961 143.69922 341.09961 C 142.29922 339.69961 140.80078 338.79961 138.80078 338.09961 C 136.60078 337.29961 133.80078 336.9 132.80078 334 C 131.80078 331.3 129.8 330.29922 127 330.69922 C 124.8 330.99922 123.29922 330.09922 123.19922 327.69922 C 123.09922 324.69922 120.10039 323.79922 118.90039 324.19922 C 113.30054 325.99922 116.29961 321.30078 115.09961 319.80078 C 119.39961 321.50078 123.19961 323.89961 127.09961 326.09961 C 135.19946 330.59946 143.99976 333.49961 152.59961 336.59961 C 161.29946 339.69961 170.39976 341.1 179.59961 342 C 189.89946 343 199.99937 343.00078 210.19922 341.30078 C 212.39922 340.90078 215.90078 339.30093 217.30078 343.30078 C 217.50078 343.90078 218.10078 343.79961 218.80078 343.59961 C 220.00078 343.19961 221.4 343.5 223 343.5 C 221 345.1 218.80039 345.40039 216.90039 346.40039 C 215.90039 346.90039 214.29922 347.00078 214.69922 348.80078 C 214.79922 349.30078 214.80078 350 215.30078 350 C 216.60078 350.1 217.89961 350.39922 219.09961 349.19922 C 220.09961 348.09922 220.89961 346.59922 223.09961 346.19922 C 222.19961 347.59922 220.89961 348.39922 221.59961 349.69922 C 221.79961 349.99922 222.70078 350 223.30078 350 C 226.00078 350 224.6 347.2 226 346 C 227 346.9 226.70078 349.60039 228.80078 348.40039 C 230.30078 347.60039 231.69922 346.09922 230.19922 344.19922 C 229.59922 343.39922 230.1 343.00078 230.5 342.80078 C 233.3 341.50078 235.4 339.1 238 337.5 C 241.3 335.4 245.90039 335.90078 248.90039 332.80078 C 249.10039 332.60078 249.6 332.69922 250 332.69922 C 254.5 332.29922 258.69922 331.49961 262.69922 329.09961 C 265.19922 327.59961 268.59922 325.89961 271.19922 329.09961 C 272.79922 331.09961 270.79961 334.60078 266.59961 337.30078 C 252.69976 346.40063 237.90063 353.70093 221.80078 358.30078 C 213.80093 360.60078 205.50063 361.20078 197.30078 362.30078 C 192.60093 362.90078 187.89907 363.79961 183.19922 365.09961 C 183.89922 366.19961 184.60039 366.30039 185.40039 366.40039 C 190.40039 366.80039 195.29922 366 200.19922 365.5 C 212.49907 364.3 224.40015 360.20039 237 360.40039 C 242.09985 360.50039 247.00001 358.99961 252 357.59961 C 260.89985 355.09961 269.59976 352.2 278.09961 348.5 C 281.99961 346.7 285.70093 344.39961 290.30078 346.59961 C 291.90078 347.39961 292.19922 348.09961 290.69922 349.09961 C 283.99937 353.49946 277.10024 357.3 269.90039 360.5 C 262.00054 364 253.49946 366.3 245.59961 370 C 243.69961 370.9 241.3 371.79922 239 369.19922 C 237.6 367.49922 234.49922 366.49922 232.19922 368.19922 C 230.89922 369.19922 229.99922 370.39922 228.19922 370.69922 C 227.59922 370.79922 226.5 371.00078 226.5 372.30078 C 226.6 373.60078 227.80078 373.70078 228.30078 373.80078 C 229.80078 374.20078 231.40078 374.10078 233.30078 374.30078 C 231.10078 377.00078 228.20039 375.99961 225.90039 377.09961 C 224.90039 377.59961 223.99922 377.8 224.69922 379.5 C 225.49922 381.2 226.29961 380.30039 227.09961 379.90039 C 228.59961 379.20039 230.00078 378.4 231.80078 377.5 C 231.60078 379.4 228.99922 379.10039 229.69922 380.90039 C 229.99922 381.60039 230.60078 382.49922 231.30078 382.19922 C 232.60078 381.69922 234 381.2 234.5 379.5 C 234.6 379.1 234.60078 377.19961 236.30078 378.09961 C 236.70078 379.59961 234.89922 379.89922 234.69922 381.19922 C 234.59922 381.89922 233.5 382.49961 235 383.09961 C 236 383.49961 236.39961 383.39922 237.09961 382.69922 C 237.79961 381.99922 237.80039 381.30039 237.90039 380.40039 C 238.40039 377.60039 239.49922 375.69961 242.69922 374.59961 C 253.39907 370.79961 264.09976 366.69961 275.09961 363.59961 C 284.89946 360.89961 293.50054 355.49985 301.90039 350 C 303.20039 349.1 304.8 347.5 304.5 345.5 C 304.3 343.5 302.90039 342.40039 300.90039 341.90039 C 299.80039 341.60039 298.69961 340.7 297.59961 340.5 C 295.89961 340.2 295.99961 339.10039 296.59961 338.40039 C 299.09961 335.40039 301.79961 332.39961 304.59961 329.59961 C 305.69961 328.49961 306.70039 328.90078 306.90039 330.80078 C 307.10039 332.80078 307.70039 334.79922 308.40039 336.69922 C 309.40039 339.19922 311.10078 338.80039 312.80078 337.40039 C 314.60078 335.90039 316.20039 334.29922 317.90039 332.69922 C 322.60039 328.39922 326.30093 323.19907 330.30078 318.19922 C 335.30078 311.99922 340.20039 305.60063 344.40039 298.80078 C 345.40039 297.20078 346.09922 296.20039 348.19922 296.90039 C 349.09922 297.20039 350.20039 297.09961 350.90039 296.09961 C 351.20039 295.59961 351.10078 295.20078 350.80078 294.80078 C 350.00078 293.70078 348.90078 293.99922 347.80078 294.19922 C 347.50078 294.19922 347.20039 294.69922 346.90039 294.69922 C 346.40039 294.69922 345.60039 294.99922 345.40039 294.19922 C 345.30039 293.89922 345.7 293.4 346 293 C 346.9 291.9 347.79922 291.19922 349.19922 292.19922 C 350.49922 292.99922 350.89961 291.59961 351.59961 291.09961 C 352.19961 290.69961 351.8 290.4 351.5 290 C 350.9 289.1 350.19961 289.20039 349.09961 289.40039 C 348.19961 289.60039 347.49961 290.7 346.09961 290 C 346.89961 288.5 346.50039 286.29961 348.90039 285.59961 C 350.30039 285.19961 349.50039 283.4 350.40039 282.5 C 349.80039 282.2 349.40078 281.79961 348.80078 281.59961 C 347.00078 280.89961 347.59961 283.10039 346.59961 283.40039 C 345.69961 283.60039 346.1 285.7 345 285 C 341.5 282.8 342.3 286.3 341.5 287.5 C 341.2 288.1 341.30078 288.60039 340.30078 288.90039 C 337.00078 289.80039 338.69922 291.50078 340.19922 292.30078 C 342.79922 293.70078 342.49961 294.89922 341.09961 297.19922 C 334.89976 306.89907 327.40024 315.49976 319.90039 324.09961 C 318.00039 326.19961 316.1 328.19961 314 329.09961 C 312.3 323.39976 316.70039 317.50078 312.90039 311.80078 C 315.90039 311.90078 318.59922 312.1 320.69922 310 C 323.39922 307.2 324.70039 303.70039 324.90039 299.90039 C 325.10039 296.10039 321.39922 293.40039 317.69922 294.40039 C 310.89937 296.30039 308.99922 299.00093 308.19922 307.80078 C 303.09922 304.00093 297.90078 307.00078 292.30078 307.30078 C 293.30078 305.90078 293.79961 304.80039 294.59961 303.90039 C 299.59946 298.70054 304.7 293.59907 309.5 288.19922 C 311.4 286.09922 313.19922 284.59922 316.19922 285.19922 C 318.19922 285.69922 318.9 283.90039 318 282.90039 C 315.3 279.60039 318.9 280.2 320 279.5 C 320.8 278.9 322.39961 279.30039 322.59961 277.90039 C 322.79961 276.10039 320.70078 276.50078 319.80078 275.80078 C 322.60078 273.70078 324 270.30078 325 267.80078 C 327.2 262.20093 330.69922 263.9 334.19922 264.5 C 335.39922 264.7 336.60078 264.8 337.80078 265 C 342.60078 265.9 347.2 267.10039 352 267.90039 C 354.5 268.30039 353.79922 269.40078 353.19922 270.80078 C 352.39922 272.90078 351.39922 275.00078 351.19922 277.30078 C 351.09922 278.50078 350.90078 279.99961 352.30078 280.59961 C 353.90078 281.29961 354.89961 279.90078 355.59961 278.80078 C 360.39946 271.20093 363.1 262.70024 366 254.40039 C 369 245.70054 370.29922 236.40063 372.19922 227.30078 C 373.29922 222.00093 374.10078 216.70039 374.30078 211.40039 C 374.50078 204.60054 374.39961 197.79985 374.09961 191 C 373.89961 185.10015 373.70078 179.20024 372.80078 173.40039 C 372.10078 169.30039 372.20078 165.00039 370.80078 160.90039 C 370.30078 159.30039 369.59961 157.79922 368.09961 158.19922 C 366.49961 158.59922 364.49922 159.50039 364.69922 161.90039 C 364.69922 162.60039 364.49922 163.20078 364.69922 163.80078 C 365.49922 166.80078 363.90078 167.90078 361.30078 168.30078 C 360.60078 168.40078 359.79961 168.40039 359.09961 168.40039 C 354.19961 168.70039 349.20078 167.89961 344.30078 169.09961 C 341.20078 169.79961 338.50039 169.19961 338.40039 165.09961 C 338.40039 164.59961 338.10078 164.10078 337.80078 163.80078 C 336.70078 162.70078 336.3 160.50078 334 161.30078 C 331.5 162.20078 330.49922 164 331.19922 166.5 C 333.49922 175.49985 334.90078 184.70015 334.80078 194 C 334.80078 195 334.79961 195.90039 335.09961 196.90039 C 336.19961 201.10039 336.40078 205.79961 335.80078 209.59961 C 335.10078 214.19946 334.20039 219.10093 333.40039 223.80078 C 331.30039 235.70063 328.29907 247.19937 323.19922 258.19922 C 321.59922 261.59922 318.29961 264.69922 319.09961 268.69922 C 319.99961 273.09907 317.39922 275.09961 314.69922 277.59961 C 314.29922 275.89961 315.90078 275.59922 316.30078 274.69922 C 316.70078 273.79922 316.99922 272.80078 317.19922 271.80078 C 317.19922 271.60078 316.49961 271 316.09961 271 C 314.59961 271.2 314.60039 272.4 314.40039 273.5 C 314.30039 274.2 313.70039 274.69922 313.40039 275.19922 C 312.00039 272.79922 312.69961 270.99961 314.09961 268.59961 C 317.69961 262.49976 321 256.29946 323.5 249.59961 C 326.6 241.39976 328.29922 232.89985 330.19922 224.5 C 332.09922 216.30015 332.20078 207.70063 332.30078 199.30078 C 332.30078 192.10093 331.30078 184.89907 330.30078 177.69922 C 329.00078 169.19937 327.09961 160.90024 323.59961 152.90039 C 324.59961 152.90039 325.5 152.99961 326.5 153.09961 C 328.5 153.39961 329.60039 151.70039 330.90039 150.40039 C 331.80039 149.40039 331.39961 148.80039 330.59961 148.40039 C 327.09961 146.70039 327 142.99961 325.5 140.09961 C 324.6 138.39961 323.59922 136.29922 323.69922 134.69922 C 323.79922 131.49922 326.90039 134.19922 328.40039 133.19922 C 328.90039 132.89922 329.5 132.70039 330 132.40039 C 333.1 130.30039 336.39961 128.59922 339.09961 126.19922 C 341.19961 124.39922 344.10039 122.89922 343.90039 119.19922 C 343.80039 117.69922 345.70078 116.79922 346.80078 118.19922 C 350.00078 122.39907 354.69922 125.60093 355.69922 131.30078 C 355.89922 132.10078 356.20039 132.40078 356.90039 132.80078 C 358.30039 133.70078 357.90078 132.09961 358.30078 132.09961 C 360.30078 132.09961 359.39922 127.70078 362.69922 129.80078 C 362.39922 129.00078 362.39922 128.40078 362.19922 128.30078 C 356.79922 125.20078 353.90039 119.70039 350.40039 114.90039 C 347.10039 110.30054 347.20078 110.2 342.30078 112.5 C 340.90078 113.3 339.89961 113.5 338.59961 112 C 331.79976 104.00015 325.30024 95.800271 317.90039 88.400391 C 311.60054 82.100481 305.39907 75.599114 299.19922 69.199219 C 299.69922 68.799219 300.70039 68.899219 301.40039 69.199219 C 305.30039 70.599189 309.00093 72.199234 312.80078 73.699219 C 314.30078 74.299204 315.80039 75.300406 315.90039 76.900391 C 316.00039 79.500346 318.49922 79.400015 319.69922 80 C 321.09922 80.699985 320.19922 78.399609 320.69922 77.599609 C 321.39922 76.599624 322.19961 78.500361 323.09961 76.900391 C 324.29961 76.100391 318.39922 75.400361 322.69922 73.900391 C 315.29937 69.900451 307.89946 65.99994 300.59961 62 C 299.39961 61.300015 298.69961 61.899219 297.59961 62.199219 C 293.39961 63.399204 291.20039 67.099249 287.90039 69.699219 C 285.10039 65.899279 284.09922 61.399159 281.69922 57.699219 C 281.09922 56.799234 280.60039 55.599609 279.40039 55.599609 C 278.20039 55.599609 278.09961 56.899234 277.59961 57.699219 C 276.99961 58.799204 276.69961 60.200391 275.09961 60.400391 C 274.49961 58.900406 275.69961 57.000766 274.09961 55.800781 C 273.89961 55.700781 273.7 55.700781 273.5 55.800781 C 272 56.500781 273.20078 58.299624 272.30078 59.099609 C 271.90078 59.499609 272.20039 60.600781 271.40039 60.300781 C 271.00039 60.100781 270.89922 59.099985 270.69922 58.5 C 269.89922 56.30003 271.30078 53.399189 268.80078 51.699219 C 268.60078 51.699219 268.40039 51.800781 268.40039 51.800781 C 268.30039 53.900751 268.1 55.900826 268 58.300781 C 267.1 57.600796 265.9 57.099594 266 56.099609 C 266.2 54.099639 264.80078 52.600361 264.80078 50.900391 C 264.80078 49.500406 263.7 48.699219 263 48.699219 C 261.5 48.699219 262.39922 50.200015 262.19922 51 C 261.89922 52.199985 262.50078 53.400015 261.80078 54.5 C 259.90078 54.3 259.30078 53.199189 258.80078 51.699219 C 258.10078 49.299249 257.6 46.79997 255.5 45 C 255 44.500001 255.00039 43.300796 253.90039 43.800781 C 252.90039 44.200781 253.09922 45.299624 253.19922 46.099609 C 253.49922 47.899594 254.89961 49.300811 254.59961 51.300781 C 251.69961 50.200796 251.70078 50.200301 248.80078 44.400391 C 248.40078 43.600391 248.69922 42.099219 247.19922 42.699219 C 245.59922 43.399204 246.79961 44.400406 247.09961 45.400391 C 247.49961 46.400376 249.10039 47.699624 247.40039 48.599609 C 246.10039 49.299609 245.20039 47.700376 244.40039 46.900391 C 244.00039 46.500391 243.9 45.800376 243.5 45.400391 C 242.2 43.900406 241.59922 40.200015 240.19922 41 C 237.99922 42.299985 240.50039 44.799249 241.40039 46.699219 C 236.20054 46.999204 236.49922 41.400361 233.19922 39.400391 C 233.09922 40.500376 233.3 41.300391 233 41.900391 C 232.5 43.000376 234.89922 43.999219 233.19922 44.699219 C 231.49922 45.399204 231.10039 43.699985 230.40039 42.5 C 229.40039 40.80003 229.10078 38.599985 226.30078 38 C 226.60078 40.29997 228.29961 41.899654 228.09961 44.099609 C 225.89961 44.099609 224.69961 42.89997 224.09961 41 C 223.79961 39.900015 223.79922 38.700376 223.19922 37.900391 C 222.69922 37.200391 221.7 36.100796 220.5 36.800781 C 219 37.700766 220.50039 38.300015 220.90039 39 L 222.40039 42.300781 C 220.10039 43.300766 219.10078 41.89997 218.30078 40 C 217.50078 38.20003 217 36.199219 214.5 36.199219 C 214 38.499174 216.49961 39.500421 216.59961 41.400391 C 213.79961 41.700376 213.09961 39.200361 211.59961 37.900391 C 210.63711 37.112891 209.67461 34.945899 208.57812 35.220703 z M 284.46094 85.628906 C 286.05 85.657031 287.17578 86.500398 288.30078 87.400391 C 296.40071 93.900342 303.80046 101.10007 310.40039 109 C 313.20039 112.4 315.89922 116.19922 318.19922 120.19922 C 320.39922 123.99915 319.50078 125.60078 317.80078 128.30078 C 317.10078 129.40078 317.4 130.79922 318 132.19922 C 320.1 136.99915 321.90078 142.00085 323.80078 146.80078 C 324.10078 147.70078 324.59922 148.6 323.69922 149 C 322.49922 149.6 322.09961 148.59961 321.59961 147.59961 C 320.39961 144.79961 319.20039 142.10039 317.90039 139.40039 C 314.90039 133.10046 310.8 127.49915 307 121.69922 C 303.7 116.59922 298.90039 112.60078 295.90039 107.30078 C 294.40039 105.10078 291.1 105 290.5 101.5 C 294.9 102 293.3 97.199602 295.5 95.599609 C 294.9 94.799616 294.40039 93.800781 293.40039 93.800781 C 287.70046 94.100781 286.19922 89.100363 282.69922 85.900391 C 283.34922 85.700391 283.93125 85.619531 284.46094 85.628906 z M 251.43945 95.986328 C 252.7834 95.975586 254.1375 96.012109 255.5 96.099609 C 259.9 96.399609 264.29922 96.799654 268.19922 99.599609 C 272.99907 103.09961 272.89907 106.4 267.69922 109.5 C 264.49922 111.5 261.19961 113.29961 258.59961 116.09961 C 255.59961 119.29961 255.00078 122.60039 256.80078 126.40039 C 260.40078 133.90024 266.79922 139.00054 272.69922 144.40039 C 278.19907 149.40039 282.09922 155.39937 285.19922 162.19922 C 289.29907 171.29907 290.60039 181.10093 290.90039 190.80078 C 291.50039 209.60048 286.69946 227.30108 276.59961 243.30078 C 272.89961 249.20078 268.70078 254.79961 263.80078 259.59961 C 259.40093 263.89961 254.60039 267.90039 249.40039 271.40039 C 244.40054 274.70039 239.29946 277.70078 233.59961 279.80078 C 234.89961 272.20093 239.90039 266.20063 242.40039 259.30078 C 245.40039 251.00093 247.7 242.59907 248.5 233.69922 C 249.3 223.79937 247.70039 214.19946 243.90039 205.09961 C 240.60039 197.09976 236.89985 188.99907 229.5 183.69922 C 225.2 180.59922 220.30078 179.6 215.30078 182 C 213.10078 183 211.80078 185.19961 210.30078 187.09961 C 207.10078 191.09961 206.50078 196.2 205.80078 201 C 205.40078 203.7 205.00078 205.99922 201.80078 206.69922 C 197.80093 207.69922 195.10078 205.59922 193.30078 202.69922 C 190.10078 197.49922 187.2 192.09985 186 186 C 185.1 181.5 183.80078 177.1 183.30078 172.5 C 183.10078 171 182.60078 170.79922 181.30078 170.69922 C 172.70093 169.99922 164.19985 168.49961 156 166.09961 C 150.40015 164.49961 144.99907 161.59961 140.69922 157.59961 C 138.89922 155.89961 137.2 155.70078 135 155.80078 C 124.80015 156.50078 114.99907 159.5 104.69922 159.5 C 103.09922 159.8 101.50078 161.00078 99.800781 160.30078 C 101.00078 155.50093 105.59961 154.40039 109.09961 152.40039 C 113.39961 149.90039 118.90078 148.3 121.80078 144.5 C 124.70078 140.7 125.49961 143.6 127.59961 144.5 C 130.79961 145.9 134.29961 144.49961 137.09961 143.09961 C 140.59961 141.19961 144.30078 142.09922 147.80078 141.19922 C 150.20078 140.59922 152.6 140.2 154 138 C 154.4 137.4 154.80039 135.79961 153.40039 135.09961 C 150.90039 133.79961 148.6 134.20078 146 135.30078 C 141.9 137.00078 138.99961 140.40039 135.09961 142.40039 C 131.89961 144.00039 128.79961 144.20039 126.09961 141.90039 C 123.59961 139.80039 124.19961 136.90078 124.59961 133.80078 C 125.79961 125.40093 131.10093 120.20078 137.30078 115.30078 C 149.10063 105.90093 162.50108 101.99961 177.30078 102.09961 C 185.40063 102.19961 193.40015 101.90078 201.5 102.80078 C 205.6 103.30078 209.70093 104.40078 213.80078 104.80078 C 217.90078 105.30078 221.1 104.39922 224.5 102.69922 C 233.07485 98.499265 242.03199 96.061523 251.43945 95.986328 z M 364.39453 173.87891 C 365.20547 173.88828 365.75039 174.59961 365.90039 176.09961 C 366.10039 178.39961 365.59961 180.89922 366.59961 183.19922 C 367.09961 184.19922 366.49922 184.70078 365.19922 184.80078 C 360.99922 185.10078 356.79961 185.50039 352.59961 185.90039 C 349.99961 186.20039 347.50039 185.60078 344.90039 186.30078 C 343.30039 186.70078 340.80039 186.30078 341.40039 183.30078 C 341.70039 181.90078 341.49922 180.09922 341.19922 179.19922 C 339.49922 174.79922 342.40039 175.20039 344.90039 175.40039 C 348.80039 175.80039 352.6 174.00078 356.5 174.80078 C 358.9 174.30078 361.2 175.29961 363.5 174.09961 C 363.825 173.94961 364.12422 173.87578 364.39453 173.87891 z M 365.80859 191.0332 C 366.33105 191.02832 366.80078 191.26172 366.80078 192.19922 C 366.80078 193.99922 367.00039 195.90078 366.90039 197.80078 C 366.70039 201.10078 363.69922 199.80078 362.69922 199.80078 C 356.49922 200.20078 350.39916 200.9 344.19922 200.5 C 339.79922 200.2 343.4 196.5 341.5 195 C 341 194.6 342.29922 192.89961 344.19922 192.59961 C 347.49922 192.09961 350.70039 191.80039 353.90039 191.90039 C 357.60039 191.80039 361.30039 191.99922 364.90039 191.19922 C 365.16289 191.12422 365.49512 191.03613 365.80859 191.0332 z M 364.41602 206.89453 C 366.42129 206.92822 367.30664 207.90625 367.40039 209.5 C 367.50039 211.6 367.10078 213.8 366.80078 216 C 366.70078 217 365.7 216.69922 365 216.69922 C 362.4 216.59922 359.69922 216.59961 356.19922 216.59961 C 352.69922 216.69961 348.30039 216.40039 343.90039 215.90039 C 341.60039 215.60039 341.2 214.39922 341.5 212.69922 C 341.6 211.99922 342.29922 211.49922 342.19922 210.69922 C 341.59922 207.79922 343.3 207.89961 345.5 207.59961 C 351.6999 206.69961 357.9001 207.30039 364 206.90039 C 364.14375 206.89414 364.28232 206.89229 364.41602 206.89453 z M 342.92578 221.48047 C 343.66328 221.49453 344.62539 221.65039 345.90039 221.90039 C 351.60028 223.00039 357.39972 222.09922 363.09961 223.19922 C 364.89961 223.59922 365.7 223.79922 365.5 225.69922 C 365.3 227.49922 365.30078 229.29961 364.80078 231.09961 C 363.90078 233.99961 361.79961 232.7 360.59961 233 C 354.29972 232.5 348.30078 232.10039 342.30078 231.40039 C 340.10078 231.20039 337.80039 230.19922 339.90039 227.19922 C 340.00039 226.99922 339.9 226.7 340 226.5 C 340.525 222.675 340.71328 221.43828 342.92578 221.48047 z M 341.53711 237.37891 C 341.74785 237.38101 341.96797 237.38789 342.19922 237.40039 C 348.7991 237.80039 355.40051 238.90078 361.90039 239.80078 C 362.30039 239.80078 362.90039 239.89961 362.90039 240.09961 C 363.60039 242.59961 361.99922 244.7 361.69922 247 C 361.39922 248.7 360.19922 248.89922 358.19922 248.69922 C 352.49922 246.49922 345.49988 247.20078 339 245.30078 C 336.9 244.70078 336.30078 244.29922 336.80078 241.69922 C 337.45703 238.51172 338.37598 237.34741 341.53711 237.37891 z M 161.1582 245.57227 C 161.41953 245.5834 161.7 245.62422 162 245.69922 C 164.4 246.29922 165.89922 247.80039 166.69922 249.90039 C 169.69922 257.30025 168.8 264.30053 164.5 270.90039 L 163.90039 271.80078 C 168.40039 272.90078 164.89961 278.60078 169.09961 279.80078 C 168.49961 280.10078 168.29922 280.30078 168.19922 280.30078 C 162.69922 276.70078 158.09908 279.19961 153.19922 282.09961 C 145.79936 286.39961 137.70064 287.19961 129.30078 285.59961 C 128.40078 285.39961 127.40039 285.30039 127.40039 284.40039 C 127.40039 283.80039 128.5 283.59922 129 283.19922 C 132.6 280.79922 134.8 276.99922 137.5 273.69922 C 139.5 271.29922 141.10039 268.89961 144.40039 268.09961 C 145.70039 267.79961 147.40078 267.30039 148.30078 265.40039 C 149.30078 263.10039 150.80078 266.69961 152.80078 265.59961 C 152.50078 265.09961 152.3 264.70078 152 264.30078 C 148.9 259.80092 149.09961 258.1 152.59961 254 C 154.29961 252 156.29922 250.3 157.69922 248 C 158.39922 246.8625 159.32891 245.49434 161.1582 245.57227 z M 334.26953 251.07227 C 334.54609 251.0834 334.83711 251.16172 335.09961 251.19922 C 341.69948 252.39922 348.30013 253.60078 355 254.80078 C 358.4 255.40078 359.39922 258.29961 357.19922 261.09961 C 356.39922 261.99961 355.70039 263.20039 353.40039 262.90039 C 351.30039 262.40039 348.49922 261.90078 345.69922 261.30078 C 341.39922 260.30078 337.09909 259.1 332.69922 258.5 C 331.29922 258.3 330.4 257.7 331.5 256 C 332.2 254.8 332.79922 253.39961 333.19922 252.09961 C 333.38672 251.22461 333.80859 251.05371 334.26953 251.07227 z M 75 277.5 C 82.099965 289.29995 91.399655 299.30083 100.59961 309.30078 C 99.99961 309.00078 99.199214 308.80078 98.699219 308.30078 C 90.899259 299.90083 81.799184 292.79917 74.699219 283.69922 C 72.899229 281.29922 75.5 279.6 75 277.5 z M 309.59961 278.09961 C 309.40149 282.16102 308.31875 285.53453 304.02148 286.86133 C 304.01451 286.90765 304.00616 286.95316 304 287 C 303.95207 287.02118 303.90653 287.04464 303.85938 287.06641 C 302.81543 291.46607 299.55054 294.12824 295.69922 296.30078 C 298.468 293.23534 299.67507 288.99768 303.85938 287.06641 C 303.87256 287.01081 303.88791 286.95655 303.90039 286.90039 C 303.9418 286.88816 303.98066 286.87393 304.02148 286.86133 C 304.58046 283.14917 307.72303 281.06263 309.59961 278.09961 z M 104.10156 312.09766 C 106.21852 312.06307 106.81992 314.01563 108.09961 315 C 105.79961 315.3 105.2 313.29961 104 312.09961 C 104.03437 312.09805 104.06796 312.09821 104.10156 312.09766 z M 281.90039 313.09961 C 284.00039 314.59961 286.59961 313.4 289.09961 314.5 C 286.89961 318 283.00039 319.69922 280.40039 322.69922 C 279.90039 323.29922 278.70039 323.29922 278.40039 321.69922 C 278.00039 319.39922 277.5 317.1 275.5 315.5 C 275.2 315.3 274.69961 315.20078 275.09961 314.80078 C 275.49961 314.30078 276.09922 313.80039 276.69922 313.40039 L 281.90039 313.09961 z M 109.80078 323.09961 C 110.30078 323.89961 112.20039 323.39961 111.90039 325.09961 C 111.30039 327.89961 115.40078 326.09961 115.30078 328.59961 C 115.30078 329.39961 115.8 329.40078 118.5 328.30078 C 119.5 327.90078 119.80078 328.69922 120.30078 329.19922 C 122.20078 330.79922 122.79922 333.39961 125.69922 335.09961 C 121.39922 336.49961 119.39961 333.39922 117.09961 332.19922 C 114.09961 330.49922 110.90078 328.80078 108.30078 326.30078 C 107.50078 325.60078 106.80039 325 106.40039 324 C 107.50039 323.7 108.80078 323.99961 109.80078 323.09961 z " />
	<path
   d="M40.5,242.1c1.7-1.3,3-2.6,4.5-3.7c3.6-2.5,4.7-2.3,6.5,1.8c1.9,4.4,4.6,8.2,8.2,11.7c-2.2,2.4-5.3,1.3-8,1.2   c-1.2,0-2.6-0.5-3.9-0.7c-1-0.2-2.1-1.3-3-0.2c-0.8,1.1-0.2,2.6,0.2,3.6c2.4,7.1,5.4,13.9,8.8,20.6c1.2,2.4,2,4.9,3.2,7.2   c1.4,2.9,0,4.9-2.2,6.2c-2.4,1.4-4.6,0.5-6.1-1.9c-4.4-7.2-8.4-14.6-12.2-22.1c-1.7-3.3-2.7-7.3-6.6-9.3c-1.7-0.8-2.7-1.2-4,0.7   c-1.6,2.2-3.8,4-5.7,5.9c-0.5,0.5-1.2,0.6-1.7,0.4c-0.9-0.5,0-1,0.2-1.5c1.4-4.7,1.6-9.4,1.4-14.2c-0.1-2.3,0.3-4.1,3.5-3   c2.1,0.7,4.9,0.8,6.5,0.3c1.9-0.6-0.4-3.5-0.3-5.6c0.3-5.6-1.1-7.3-6-8.9c-1.7-0.5-3.3-0.4-4.3,1.3c-1.2,2-2.7,3.7-5.6,5.1   c0.9-3.7,1.3-6.8,2.5-9.6c1.1-2.7,2-5.5,2.2-8.3c0.1-2.2,1.2-1.9,2.4-1.6c2.2,0.5,4.3,1.2,6.5,1.8c0.7-4.6-0.5-8.9-0.6-13.4   c-0.1-2.2-2.6-2.7-3.7-4.2c-2.2-2.8-3,0.6-4.4,1.1c-1.6,0.7-2.3,2.6-3.5,3.5c-1.3,0.9-2.1,2.4-4,3c1-7.2,4.2-13.5,6-20.2   c0.3-1.1,1.1-0.9,2-0.6c0.8,0.3,1.1,0.9,1.7,1.3c4.9,2.8,5.6,2.4,5.9-3.5c0-0.6-0.2-1.3,0.1-1.9c1.5-3.4,1.2-5.4-3.2-5   c-0.5,0-1.2-0.6-2.2-1.2c6.2-2.2,10.3-6.3,13.9-11.4c-0.3,4-0.5,7.8-0.2,11.7c0.2,3.2,0.4,6.5,1.1,9.7c0.5,2.6,1.5,1.9,2.9,1.1   c1.7-1,2.7-3.8,4.8-3.1c1.6,0.6,0.6,3.3,1.3,5c2,5.5,3.3,11.3,4.9,17.1c-4-0.1-6.3-2.9-8.7-5.1c-1-0.8-1.9-1.5-2.6-1   c-1,0.7-2.3,2.3-2,3.1c1.3,4.3,0.2,8.9,1.6,13.1c0.9,0.2,0.9-0.5,1.4-0.9c4.1-3.9,4.2-3.9,6.7,1.4c1.5,3.3,3.5,6.3,5.5,9.4   c0.6,0.9,1.8,2.3,0.9,3.3c-0.5,0.6-2.1,0.2-3.2,0.4c-1.9,0.2-3-1.4-4.6-1.9c-3.4-1-6,0.6-6.2,4.2c-0.1,1.3,0.6,2.3,0.8,3.5   C39.7,239.4,40.1,240.5,40.5,242.1z"
   id="path6" />
	<path
   d="M182,25.6c-0.6,2.4-2.1,3.3-3.4,4.4c-6.3,5.3-12.3,10.9-18.1,16.7c-5.6,5.7-10.6,12-14.9,18.8c-0.6,0.9-1.7,1.7-1.6,3.3   c0,0.8-0.8,1.8-2.8,1.6c-5.3-0.6-9.9-3.2-14.9-4.7c-7.2-2.1-9.1-1.2-12.6,4.8c-2.3,3.8-3.9,8-6.4,11.7c-1.4,2-2.9,2.8-5.1,2.7   c-3.2,0-6.5,0.2-9.7,0c-3.8-0.3-5.6,1.8-5.7,5.1c-0.1,3.6-1.6,6.8-1.7,10.5c-0.1,3.6-4,4.1-6.6,4.5c-3.5,0.6-6.7,1.9-10.2,2.5   c-2,0.3-3.5,1.6-3.4,4.3c0.2,5.1-0.1,10.2,0.2,15.3c0.2,4-2,5.9-5.3,7.1c-0.4,0.2-1,0-1.5,0.1c-8.7,2.3-8.6,2.7-9.1,11.4   c-0.7,12.4-1.3,24.8-3.2,37.1c-1.7,0-1.1-1.2-1.1-1.9c0.1-6.2,0-12.4-0.8-18.5c-1.2-9.9-2.6-19.7-4-29.6c-0.3-2.1-0.1-3.5,2.3-4.2   c2.4-0.7,4.7-1.8,7.1-2.6c6.7-2.4,6.9-2.8,7.3-9.9c0.2-4.4-0.8-8.6-0.8-12.9c0-2.4,0.7-3.6,3.4-4.3c5.2-1.3,10.3-3.4,15.4-5.1   c1.7-0.6,2.3-2.2,2.2-3.5c-0.3-5.1,1.8-9.9,1.6-15c-0.1-1.7,0.5-1.8,2.3-1.9c5.6-0.3,11.2-2,16.7-1.7c6.8,0.4,8-4.5,10.2-8.7   c1.9-3.6,3.6-7.3,5.2-11.1c0.9-2,1.6-2.5,4.1-2c7.7,1.8,14.8,5.2,22.5,6.6c1.7,0.3,2.6-0.1,3.5-0.9c4.8-4.2,9.6-8.5,14.4-12.8   C164.7,36.4,172.6,30.4,182,25.6z"
   id="path8" />
	<path
   d="M95.3,55.7c3,0,5.5,2,5.6,4.4c0.1,1.9-3.9,7.6-5.3,7.5c-2.1-0.1-5.2-4.1-5.2-6.8C90.5,58.1,92.8,55.7,95.3,55.7z"
   id="path10" />
	<path
   d="M67.4,80.4c2.7,0.1,5.2,2.8,5,5.5c-0.2,3.1-2.9,6.5-5.2,6.5c-2.4,0-4.7-3.4-4.5-6.7C62.9,82.3,64.6,80.3,67.4,80.4z"
   id="path12" />
	<path
   d="M141.4,41.7c0,3.3-1.8,5.1-5.3,5c-2.8,0-4.3-1.5-4.4-4.3c-0.1-2.9,2.5-6.3,4.7-6.1C139.2,36.4,141.4,38.8,141.4,41.7z"
   id="path14" />
	<path
   d="M49.3,115c0.2,2.2-0.8,4.8-3.9,5.6c-1.7,0.4-5.3-4.8-5.2-7.1c0.1-2.8,2.1-4.2,5.6-4C48.1,109.7,49.6,111.6,49.3,115z"
   id="path16" />
	
	
	
	
	
	
	
	
	
	
	
	
	
	
	
	<g
   id="g106">
		<path
   d="M511.7,164h-42.5l-7.4,24h-33.1l47.2-128.7H505L552.5,188h-33.3L511.7,164z M476.6,140.1h27.7l-13.9-44.6L476.6,140.1z"
   id="path48" />
		<path
   d="M588.7,92.4l1,11.2c6.8-8.7,15.9-13,27.3-13c12.1,0,20.2,4.8,24.5,14.4c6.5-9.6,15.8-14.4,28.1-14.4    c19.4,0,29.3,11.7,29.9,35.2V188h-29.9v-60.4c0-4.9-0.8-8.5-2.5-10.7c-1.7-2.2-4.7-3.4-9-3.4c-5.9,0-10.3,2.6-13.2,7.9l0.1,1.2    V188h-29.9v-60.2c0-5-0.8-8.6-2.4-10.9c-1.6-2.2-4.6-3.4-9.1-3.4c-5.7,0-10.1,2.6-13.1,7.9V188h-29.8V92.4H588.7z"
   id="path50" />
		<path
   d="M762.7,189.8c-14.7,0-26.5-4.4-35.6-13.1c-9.1-8.8-13.6-20.1-13.6-34.2v-2.5c0-9.8,1.8-18.4,5.4-25.9    c3.6-7.5,8.9-13.3,15.9-17.4c7-4.1,15.2-6.1,24.7-6.1c13.4,0,24,4.2,31.8,12.5c7.8,8.3,11.7,20,11.7,34.9v11.6h-59.2    c1.1,5.4,3.4,9.6,7,12.6c3.6,3.1,8.2,4.6,14,4.6c9.4,0,16.8-3.3,22.1-9.9l13.6,16.1c-3.7,5.1-9,9.2-15.8,12.2    C777.8,188.3,770.5,189.8,762.7,189.8z M759.3,113.6c-8.7,0-13.9,5.8-15.6,17.3h30v-2.3c0.1-4.8-1.1-8.5-3.6-11.1    C767.7,114.9,764,113.6,759.3,113.6z"
   id="path52" />
		<path
   d="M872.8,119.4l-9.8-0.7c-9.4,0-15.4,2.9-18,8.8V188h-29.8V92.4h27.9l1,12.3c5-9.4,12-14.1,20.9-14.1c3.2,0,6,0.4,8.3,1.1    L872.8,119.4z"
   id="path54" />
		<path
   d="M883.3,67.8c0-4.2,1.5-7.7,4.6-10.4c3.1-2.7,7-4.1,11.9-4.1c4.9,0,8.9,1.4,11.9,4.1c3.1,2.7,4.6,6.2,4.6,10.4    s-1.5,7.7-4.6,10.4c-3.1,2.7-7,4.1-11.9,4.1c-4.9,0-8.9-1.4-11.9-4.1C884.9,75.5,883.3,72,883.3,67.8z M915,188h-29.9V92.4H915    V188z"
   id="path56" />
		<path
   d="M973.7,166.8c4.2,0,7.4-1.1,9.7-3.4c2.3-2.3,3.4-5.4,3.4-9.5h27.9c0,10.5-3.8,19.1-11.3,25.8c-7.5,6.7-17.2,10.1-29,10.1    c-13.9,0-24.9-4.4-32.9-13.1c-8-8.7-12-20.8-12-36.2v-1.2c0-9.7,1.8-18.2,5.3-25.6c3.6-7.4,8.7-13.1,15.4-17.1    c6.7-4,14.7-6,23.9-6c12.4,0,22.3,3.4,29.6,10.3c7.3,6.9,11,16.2,11,28h-27.9c0-4.9-1.2-8.7-3.6-11.4c-2.4-2.7-5.7-4-9.7-4    c-7.7,0-12.2,4.9-13.5,14.8c-0.4,3.1-0.6,7.4-0.6,12.9c0,9.6,1.1,16.3,3.4,20S968.7,166.8,973.7,166.8z"
   id="path58" />
		<path
   d="M1081.2,188c-1.1-1.9-2-4.8-2.8-8.6c-5.5,6.9-13.1,10.3-23,10.3c-9,0-16.7-2.7-23-8.2c-6.3-5.4-9.5-12.3-9.5-20.5    c0-10.4,3.8-18.2,11.5-23.5c7.7-5.3,18.8-8,33.4-8h9.2v-5.1c0-8.8-3.8-13.2-11.4-13.2c-7.1,0-10.6,3.5-10.6,10.5h-29.8    c0-9.2,3.9-16.7,11.8-22.5c7.9-5.8,17.9-8.7,30.1-8.7c12.2,0,21.8,3,28.9,8.9c7.1,6,10.7,14.1,10.9,24.5v42.3    c0.1,8.8,1.5,15.5,4.1,20.2v1.5H1081.2z M1062.6,168.6c3.7,0,6.8-0.8,9.2-2.4c2.4-1.6,4.2-3.4,5.3-5.4v-15.3h-8.7    c-10.4,0-15.6,4.7-15.6,14c0,2.7,0.9,4.9,2.7,6.6C1057.4,167.8,1059.7,168.6,1062.6,168.6z"
   id="path60" />
		<path
   d="M1150.8,92.4l1,11.2c6.6-8.7,15.7-13,27.3-13c10,0,17.4,3,22.3,8.9c4.9,6,7.5,14.9,7.6,26.9V188h-29.9v-60.4    c0-4.8-1-8.4-2.9-10.6c-1.9-2.3-5.5-3.4-10.6-3.4c-5.8,0-10.2,2.3-13,6.9V188h-29.8V92.4H1150.8z"
   id="path62" />
		<path
   d="M1305,188h-30.9V59.4h30.9V188z"
   id="path64" />
		<path
   d="M1352.5,92.4l1,11.2c6.6-8.7,15.7-13,27.3-13c10,0,17.4,3,22.3,8.9c4.9,6,7.5,14.9,7.6,26.9V188h-29.9v-60.4    c0-4.8-1-8.4-2.9-10.6c-1.9-2.3-5.5-3.4-10.6-3.4c-5.8,0-10.2,2.3-13,6.9V188h-29.8V92.4H1352.5z"
   id="path66" />
		<path
   d="M1423.5,139.5c0-15.1,3.3-27.1,9.8-35.8c6.5-8.7,15.7-13.1,27.4-13.1c8.5,0,15.7,3.4,21.6,10.1V52.3h29.9V188h-26.8    l-1.5-10.3c-6.1,8-13.9,12-23.3,12c-11.4,0-20.4-4.4-27-13.1C1426.8,168,1423.5,155.6,1423.5,139.5z M1453.3,141.4    c0,17,4.9,25.5,14.8,25.5c6.6,0,11.3-2.8,14.1-8.3v-36.4c-2.7-5.7-7.4-8.5-14-8.5c-9.2,0-14.2,7.4-14.9,22.3L1453.3,141.4z"
   id="path68" />
		<path
   d="M1528.8,67.8c0-4.2,1.5-7.7,4.6-10.4c3.1-2.7,7-4.1,11.9-4.1c4.9,0,8.9,1.4,11.9,4.1c3.1,2.7,4.6,6.2,4.6,10.4    s-1.5,7.7-4.6,10.4c-3.1,2.7-7,4.1-11.9,4.1c-4.9,0-8.9-1.4-11.9-4.1C1530.4,75.5,1528.8,72,1528.8,67.8z M1560.5,188h-29.9V92.4    h29.9V188z"
   id="path70" />
		<path
   d="M1632.7,188c-1.1-1.9-2-4.8-2.8-8.6c-5.5,6.9-13.1,10.3-23,10.3c-9,0-16.7-2.7-23-8.2c-6.3-5.4-9.5-12.3-9.5-20.5    c0-10.4,3.8-18.2,11.5-23.5c7.7-5.3,18.8-8,33.4-8h9.2v-5.1c0-8.8-3.8-13.2-11.4-13.2c-7.1,0-10.6,3.5-10.6,10.5h-29.8    c0-9.2,3.9-16.7,11.8-22.5c7.9-5.8,17.9-8.7,30.1-8.7c12.2,0,21.8,3,28.9,8.9c7.1,6,10.7,14.1,10.9,24.5v42.3    c0.1,8.8,1.5,15.5,4.1,20.2v1.5H1632.7z M1614,168.6c3.7,0,6.8-0.8,9.2-2.4c2.4-1.6,4.2-3.4,5.3-5.4v-15.3h-8.7    c-10.4,0-15.6,4.7-15.6,14c0,2.7,0.9,4.9,2.7,6.6C1608.9,167.8,1611.2,168.6,1614,168.6z"
   id="path72" />
		<path
   d="M1702.2,92.4l1,11.2c6.6-8.7,15.7-13,27.3-13c10,0,17.4,3,22.3,8.9c4.9,6,7.5,14.9,7.6,26.9V188h-29.9v-60.4    c0-4.8-1-8.4-2.9-10.6c-1.9-2.3-5.5-3.4-10.6-3.4c-5.8,0-10.2,2.3-13,6.9V188h-29.8V92.4H1702.2z"
   id="path74" />
		<path
   d="M546.2,344h-30.8v-53.7h-45.7V344h-31V215.4h31v51.1h45.7v-51.1h30.8V344z"
   id="path76" />
		<path
   d="M610.7,345.8c-14.7,0-26.5-4.4-35.6-13.1c-9.1-8.8-13.6-20.1-13.6-34.2v-2.5c0-9.8,1.8-18.4,5.4-25.9    c3.6-7.5,8.9-13.3,15.9-17.4c7-4.1,15.2-6.1,24.7-6.1c13.4,0,24,4.2,31.8,12.5c7.8,8.3,11.7,20,11.7,34.9v11.6h-59.2    c1.1,5.4,3.4,9.6,7,12.6c3.6,3.1,8.2,4.6,14,4.6c9.4,0,16.8-3.3,22.1-9.9l13.6,16.1c-3.7,5.1-9,9.2-15.8,12.2    C625.8,344.3,618.5,345.8,610.7,345.8z M607.3,269.6c-8.7,0-13.9,5.8-15.6,17.3h30v-2.3c0.1-4.8-1.1-8.5-3.6-11.1    C615.7,270.9,612,269.6,607.3,269.6z"
   id="path78" />
		<path
   d="M716.8,344c-1.1-1.9-2-4.8-2.8-8.6c-5.5,6.9-13.1,10.3-23,10.3c-9,0-16.7-2.7-23-8.2c-6.3-5.4-9.5-12.3-9.5-20.5    c0-10.4,3.8-18.2,11.5-23.5c7.7-5.3,18.8-8,33.4-8h9.2v-5.1c0-8.8-3.8-13.2-11.4-13.2c-7.1,0-10.6,3.5-10.6,10.5h-29.8    c0-9.2,3.9-16.7,11.8-22.5c7.9-5.8,17.9-8.7,30.1-8.7c12.2,0,21.8,3,28.9,8.9c7.1,6,10.7,14.1,10.9,24.5v42.3    c0.1,8.8,1.5,15.5,4.1,20.2v1.5H716.8z M698.2,324.6c3.7,0,6.8-0.8,9.2-2.4c2.4-1.6,4.2-3.4,5.3-5.4v-15.3H704    c-10.4,0-15.6,4.7-15.6,14c0,2.7,0.9,4.9,2.7,6.6C693,323.8,695.3,324.6,698.2,324.6z"
   id="path80" />
		<path
   d="M790.4,344h-29.9V208.3h29.9V344z"
   id="path82" />
		<path
   d="M843.5,224.6v23.8h15.7v20.7h-15.7v43.7c0,3.6,0.6,6.1,1.9,7.5s3.9,2.1,7.7,2.1c2.9,0,5.4-0.2,7.4-0.5v21.3    c-5.4,1.7-11,2.6-16.8,2.6c-10.3,0-17.8-2.4-22.7-7.2c-4.9-4.8-7.3-12.2-7.3-22v-47.5h-12.2v-20.7h12.2v-23.8H843.5z"
   id="path84" />
		<path
   d="M900,258.7c6.4-8,14.5-12,24.4-12c10.5,0,18.5,3.1,23.9,9.4c5.4,6.2,8.1,15.5,8.2,27.7V344h-29.9v-59.7    c0-5.1-1-8.8-3.1-11.2c-2.1-2.4-5.6-3.6-10.5-3.6c-6.1,0-10.5,1.9-13,5.8V344h-29.8V208.3H900V258.7z"
   id="path86" />
		<path
   d="M1037.3,276.3c-3.5-4.9-6.2-9.7-8.2-14.1c-2-4.5-3-9.1-3-13.9c0-10.4,3.4-18.8,10.1-25.1c6.7-6.4,15.5-9.6,26.3-9.6    c9.7,0,17.8,3,24.1,8.9c6.4,5.9,9.5,13.3,9.5,22.1c0,11-6,20.7-18.1,29.2l-6.7,4.7l19.8,22.7c3.2-6.5,4.9-13.6,4.9-21.3h25    c0,17.4-4,31.3-12,41.8l19.6,22.5h-33.2l-6-6.8c-4.9,2.9-10,5.1-15.2,6.5c-5.2,1.4-11,2.1-17.5,2.1c-12.7,0-22.9-3.3-30.6-10    c-7.7-6.7-11.5-15.5-11.5-26.4c0-6,1.5-11.3,4.6-16.2c3-4.8,8.9-10.5,17.7-16.9L1037.3,276.3z M1058.8,322.9    c5.2,0,10.1-1.2,14.8-3.6l-23.2-26.3l-0.8,0.5c-3.4,4.1-5,8.8-5,14c0,4.3,1.4,8,4.1,11C1051.4,321.4,1054.8,322.9,1058.8,322.9z     M1051.9,247.9c0,4.1,2.2,9.1,6.7,15l5.9-3.7c2.7-1.8,4.7-3.6,5.9-5.5c1.2-1.9,1.9-4.3,1.9-7.2c0-2.7-0.9-5.1-2.8-7.1    c-1.9-2-4.2-3-7-3c-3.3,0-5.9,1-7.8,3.1C1052.8,241.7,1051.9,244.5,1051.9,247.9z"
   id="path88" />
		<path
   d="M1252.9,309.8c0-4.5-1.6-8.1-4.8-10.6c-3.2-2.5-8.9-5.2-16.9-7.9c-8.1-2.7-14.7-5.3-19.8-7.9c-16.7-8.2-25-19.4-25-33.8    c0-7.1,2.1-13.4,6.2-18.9c4.2-5.4,10-9.7,17.6-12.7c7.6-3,16.1-4.6,25.6-4.6c9.2,0,17.5,1.7,24.9,4.9c7.3,3.3,13,8,17.1,14.1    c4.1,6.1,6.1,13.1,6.1,20.9H1253c0-5.2-1.6-9.3-4.8-12.2c-3.2-2.9-7.6-4.3-13-4.3c-5.5,0-9.9,1.2-13.1,3.7    c-3.2,2.4-4.8,5.6-4.8,9.3c0,3.3,1.8,6.3,5.3,9c3.5,2.7,9.8,5.5,18.6,8.3c8.9,2.9,16.2,5.9,21.9,9.2c13.9,8,20.9,19.1,20.9,33.1    c0,11.3-4.2,20.1-12.7,26.5s-20.1,9.6-34.9,9.6c-10.4,0-19.9-1.9-28.3-5.6c-8.5-3.7-14.8-8.9-19.1-15.4c-4.3-6.5-6.4-14-6.4-22.5    h31.1c0,6.9,1.8,12,5.3,15.2c3.6,3.3,9.4,4.9,17.4,4.9c5.1,0,9.2-1.1,12.2-3.3C1251.4,317,1252.9,313.8,1252.9,309.8z"
   id="path90" />
		<path
   d="M1344.8,345.8c-14.7,0-26.5-4.4-35.6-13.1c-9.1-8.8-13.6-20.1-13.6-34.2v-2.5c0-9.8,1.8-18.4,5.4-25.9    c3.6-7.5,8.9-13.3,15.9-17.4c7-4.1,15.2-6.1,24.7-6.1c13.4,0,24,4.2,31.8,12.5c7.8,8.3,11.7,20,11.7,34.9v11.6h-59.2    c1.1,5.4,3.4,9.6,7,12.6c3.6,3.1,8.2,4.6,14,4.6c9.4,0,16.8-3.3,22.1-9.9l13.6,16.1c-3.7,5.1-9,9.2-15.8,12.2    C1359.9,344.3,1352.6,345.8,1344.8,345.8z M1341.4,269.6c-8.7,0-13.9,5.8-15.6,17.3h30v-2.3c0.1-4.8-1.1-8.5-3.6-11.1    C1349.7,270.9,1346.1,269.6,1341.4,269.6z"
   id="path92" />
		<path
   d="M1454.9,275.4l-9.8-0.7c-9.4,0-15.4,2.9-18,8.8V344h-29.8v-95.6h27.9l1,12.3c5-9.4,12-14.1,20.9-14.1c3.2,0,6,0.4,8.3,1.1    L1454.9,275.4z"
   id="path94" />
		<path
   d="M1505.3,308.6l15.1-60.2h31.4l-31.2,95.6h-30.4l-31.2-95.6h31.5L1505.3,308.6z"
   id="path96" />
		<path
   d="M1560.5,223.8c0-4.2,1.5-7.7,4.6-10.4c3.1-2.7,7-4.1,11.9-4.1c4.9,0,8.9,1.4,11.9,4.1c3.1,2.7,4.6,6.2,4.6,10.4    s-1.5,7.7-4.6,10.4c-3.1,2.7-7,4.1-11.9,4.1c-4.9,0-8.9-1.4-11.9-4.1C1562,231.5,1560.5,228,1560.5,223.8z M1592.1,344h-29.9    v-95.6h29.9V344z"
   id="path98" />
		<path
   d="M1650.9,322.8c4.2,0,7.4-1.1,9.7-3.4c2.3-2.3,3.4-5.4,3.4-9.5h27.9c0,10.5-3.8,19.1-11.3,25.8c-7.5,6.7-17.2,10.1-29,10.1    c-13.9,0-24.9-4.4-32.9-13.1c-8-8.7-12-20.8-12-36.2v-1.2c0-9.7,1.8-18.2,5.3-25.6c3.6-7.4,8.7-13.1,15.4-17.1    c6.7-4,14.7-6,23.9-6c12.4,0,22.3,3.4,29.6,10.3c7.3,6.9,11,16.2,11,28H1664c0-4.9-1.2-8.7-3.6-11.4c-2.4-2.7-5.7-4-9.7-4    c-7.7,0-12.2,4.9-13.5,14.8c-0.4,3.1-0.6,7.4-0.6,12.9c0,9.6,1.1,16.3,3.4,20S1645.9,322.8,1650.9,322.8z"
   id="path100" />
		<path
   d="M1750.8,345.8c-14.7,0-26.5-4.4-35.6-13.1c-9.1-8.8-13.6-20.1-13.6-34.2v-2.5c0-9.8,1.8-18.4,5.4-25.9    c3.6-7.5,8.9-13.3,15.9-17.4c7-4.1,15.2-6.1,24.7-6.1c13.4,0,24,4.2,31.8,12.5c7.8,8.3,11.7,20,11.7,34.9v11.6h-59.2    c1.1,5.4,3.4,9.6,7,12.6c3.6,3.1,8.2,4.6,14,4.6c9.4,0,16.8-3.3,22.1-9.9l13.6,16.1c-3.7,5.1-9,9.2-15.8,12.2    C1765.9,344.3,1758.6,345.8,1750.8,345.8z M1747.4,269.6c-8.7,0-13.9,5.8-15.6,17.3h30v-2.3c0.1-4.8-1.1-8.5-3.6-11.1    C1755.7,270.9,1752.1,269.6,1747.4,269.6z"
   id="path102" />
		<path
   d="M1853.1,317.2c0-2.5-1.3-4.6-4-6.1c-2.7-1.5-7.7-3.1-15.1-4.8c-7.4-1.6-13.6-3.8-18.4-6.5c-4.8-2.7-8.5-5.9-11-9.8    c-2.5-3.8-3.8-8.2-3.8-13.2c0-8.8,3.6-16,10.9-21.7c7.2-5.7,16.7-8.5,28.5-8.5c12.6,0,22.7,2.9,30.4,8.6    c7.7,5.7,11.5,13.2,11.5,22.5h-29.9c0-7.7-4-11.5-12.1-11.5c-3.1,0-5.7,0.9-7.9,2.6c-2.1,1.7-3.2,3.9-3.2,6.5    c0,2.7,1.3,4.8,3.9,6.5c2.6,1.7,6.7,3,12.4,4.1c5.7,1.1,10.7,2.3,15,3.8c14.4,4.9,21.6,13.8,21.6,26.6c0,8.7-3.9,15.8-11.6,21.3    c-7.7,5.5-17.8,8.2-30.1,8.2c-8.2,0-15.5-1.5-21.9-4.4c-6.4-2.9-11.4-7-15-12c-3.6-5.1-5.4-10.4-5.4-16h27.8    c0.1,4.4,1.6,7.6,4.4,9.7c2.8,2,6.5,3,10.9,3c4.1,0,7.1-0.8,9.1-2.5C1852.1,322,1853.1,319.8,1853.1,317.2z"
   id="path104" />
	</g>
</g>
</svg>
